<svg data-v-423bf9ae="" xmlns="http://www.w3.org/2000/svg" viewBox="0 0 613 90" class="iconLeft"><!----><!----><!----><g data-v-423bf9ae="" id="06f3985f-064b-4fad-9157-5b6bc1172ca4" fill="black" transform="matrix(5.888125304749934,0,0,5.888125304749934,89.72772742784099,-7.257113245075558)"><path d="M0.48 10.00C0.48 12.60 2.13 13.97 4.54 13.97C7.07 13.97 8.43 12.67 8.43 10.33L8.43 8.71L4.20 8.71L4.20 10.33L6.58 10.33L6.58 10.40C6.58 11.58 6.01 12.29 4.54 12.29C3.09 12.29 2.32 11.40 2.32 10.05L2.32 7.70C2.32 6.47 3.15 5.46 4.54 5.46C5.88 5.46 6.58 6.24 6.58 7.42L6.58 7.53L8.43 7.53L8.43 7.42C8.43 5.12 7.01 3.78 4.54 3.78C2.06 3.78 0.48 5.32 0.48 7.76ZM9.32 10.25C9.32 12.40 10.82 13.97 12.89 13.97C14.76 13.97 15.57 12.99 16.04 12.26L14.53 11.40C14.29 11.89 13.85 12.43 12.87 12.43C11.86 12.43 11.20 11.72 11.16 10.82L16.30 10.82L16.30 10.14C16.30 8.05 14.88 6.64 12.87 6.64C10.82 6.64 9.32 8.15 9.32 10.25ZM11.17 9.59C11.28 8.76 11.86 8.18 12.85 8.18C13.76 8.18 14.38 8.74 14.48 9.59ZM17.56 6.83L17.56 13.78L19.32 13.78L19.32 10.19C19.32 8.96 19.92 8.26 21.06 8.26C22.06 8.26 22.62 8.83 22.62 9.80L22.62 13.78L24.39 13.78L24.39 9.63C24.39 7.83 23.23 6.72 21.69 6.72C20.41 6.72 19.77 7.31 19.49 7.95L19.29 7.95L19.29 6.83ZM25.56 10.25C25.56 12.40 27.06 13.97 29.13 13.97C31.00 13.97 31.81 12.99 32.28 12.26L30.77 11.40C30.53 11.89 30.09 12.43 29.11 12.43C28.10 12.43 27.44 11.72 27.40 10.82L32.54 10.82L32.54 10.14C32.54 8.05 31.12 6.64 29.11 6.64C27.06 6.64 25.56 8.15 25.56 10.25ZM27.41 9.59C27.52 8.76 28.10 8.18 29.09 8.18C30.00 8.18 30.62 8.74 30.72 9.59ZM35.53 6.83L33.80 6.83L33.80 13.78L35.56 13.78L35.56 9.88C35.56 8.90 36.20 8.43 37.10 8.43L38.14 8.43L38.14 6.80L37.44 6.80C36.55 6.80 35.97 7.07 35.70 7.84L35.53 7.84ZM38.84 8.43L40.26 9.35C40.70 8.62 41.27 8.15 42.20 8.15C43.15 8.15 43.65 8.67 43.65 9.32L43.65 9.49L40.87 9.80C39.58 9.94 38.70 10.70 38.70 11.80C38.70 13.13 39.73 13.97 41.30 13.97C42.80 13.97 43.32 13.24 43.48 12.94L43.68 12.94L43.68 13.78L45.42 13.78L45.42 9.34C45.42 7.71 44.18 6.64 42.29 6.64C40.60 6.64 39.66 7.39 38.84 8.43ZM40.54 11.70C40.54 11.30 40.87 11.06 41.52 10.98L43.65 10.72L43.65 10.84C43.65 11.79 42.97 12.52 41.73 12.52C40.95 12.52 40.54 12.18 40.54 11.70ZM46.31 6.83L46.31 8.37L48.08 8.37L48.08 12.43C48.08 13.22 48.66 13.78 49.45 13.78L51.35 13.78L51.35 12.24L50.23 12.24C49.98 12.24 49.84 12.10 49.84 11.82L49.84 8.37L51.74 8.37L51.74 6.83L49.84 6.83L49.84 4.68L48.08 4.68L48.08 6.83ZM52.64 10.25C52.64 12.40 54.14 13.97 56.21 13.97C58.07 13.97 58.88 12.99 59.36 12.26L57.85 11.40C57.61 11.89 57.16 12.43 56.18 12.43C55.17 12.43 54.52 11.72 54.47 10.82L59.61 10.82L59.61 10.14C59.61 8.05 58.20 6.64 56.18 6.64C54.14 6.64 52.64 8.15 52.64 10.25ZM54.49 9.59C54.60 8.76 55.17 8.18 56.17 8.18C57.08 8.18 57.69 8.74 57.79 9.59ZM62.80 3.98L60.09 13.78L61.99 13.78L62.57 11.62L66.01 11.62L66.58 13.78L68.49 13.78L65.77 3.98ZM63.01 9.91L64.20 5.52L64.37 5.52L65.56 9.91ZM71.12 6.83L69.38 6.83L69.38 13.78L71.15 13.78L71.15 9.88C71.15 8.90 71.79 8.43 72.69 8.43L73.72 8.43L73.72 6.80L73.02 6.80C72.14 6.80 71.55 7.07 71.29 7.84L71.12 7.84ZM74.34 10.25C74.34 12.40 75.84 13.97 77.91 13.97C79.77 13.97 80.58 12.99 81.06 12.26L79.55 11.40C79.31 11.89 78.86 12.43 77.88 12.43C76.87 12.43 76.22 11.72 76.17 10.82L81.31 10.82L81.31 10.14C81.31 8.05 79.90 6.64 77.88 6.64C75.84 6.64 74.34 8.15 74.34 10.25ZM76.19 9.59C76.30 8.76 76.87 8.18 77.87 8.18C78.78 8.18 79.39 8.74 79.49 9.59ZM82.24 8.43L83.66 9.35C84.10 8.62 84.67 8.15 85.60 8.15C86.55 8.15 87.05 8.67 87.05 9.32L87.05 9.49L84.27 9.80C82.98 9.94 82.10 10.70 82.10 11.80C82.10 13.13 83.13 13.97 84.70 13.97C86.20 13.97 86.72 13.24 86.88 12.94L87.08 12.94L87.08 13.78L88.82 13.78L88.82 9.34C88.82 7.71 87.58 6.64 85.69 6.64C84 6.64 83.06 7.39 82.24 8.43ZM83.94 11.70C83.94 11.30 84.27 11.06 84.92 10.98L87.05 10.72L87.05 10.84C87.05 11.79 86.37 12.52 85.13 12.52C84.35 12.52 83.94 12.18 83.94 11.70Z"></path></g><!----><g data-v-423bf9ae="" id="dd1c2450-1272-4de1-8917-3f2dddddd1ce" transform="matrix(1.1364766610757167,0,0,1.1364766610757167,-20.88790258891732,-11.419067239375508)" stroke="none" fill="black"><path d="M34.38 32.88a23 23 0 0 0 .94 4.83 5.38 5.38 0 0 0 2 2.48c.17 1 .36 1.83.56 2.57 1 3.72 5.79 11.11 12.18 11.33h1.62c6.69-.07 11.54-8 12.44-11.33.26-.94.45-1.89.57-2.57a5.36 5.36 0 0 0 2.05-2.49 22.79 22.79 0 0 0 .93-4.82 7.83 7.83 0 0 0-.63-4.18c1.07-10.91-3.54-13.69-5-14.28a3.11 3.11 0 0 1-1-.63C56.67 9.57 45.78 8.9 40.78 14a5.38 5.38 0 0 1-1.37 1c-1.27.66-5.31 3.58-4.4 13.7a7.87 7.87 0 0 0-.63 4.18zm2.91-3.15a1.25 1.25 0 0 0 .25-.88c-.71-7.06 1.18-10.68 3-11.63a7.89 7.89 0 0 0 2-1.49c3.94-4 13.27-3.51 16.87-.13a5.59 5.59 0 0 0 1.72 1.12c.76.31 4.48 2.34 3.41 12.11a1.24 1.24 0 0 0 .24.88 5.26 5.26 0 0 1 .43 3 20.94 20.94 0 0 1-.76 4.09 2.85 2.85 0 0 1-1.41 1.5 1.25 1.25 0 0 0-.7.94 27.07 27.07 0 0 1-.61 2.9c-.76 2.82-5.11 9.44-10 9.49H50.2c-5.15-.17-9.14-6.86-9.86-9.49a28 28 0 0 1-.6-2.9 1.25 1.25 0 0 0-.7-.93 2.81 2.81 0 0 1-1.4-1.49 21 21 0 0 1-.77-4.11 5.19 5.19 0 0 1 .42-2.98zM69.52 60c-1.14-.47-3.31-1.3-3.31-1.3a9.46 9.46 0 0 1-2.84-1.87l-2-1.72a.22.22 0 0 0-.11-.11c-1.17 0-6.62 5-9.54 5.05h-1.56c-2.89-.1-8.27-5.07-9.44-5.07a.23.23 0 0 0-.16.05l-2 1.81a9.46 9.46 0 0 1-2.84 1.88s-2 .78-3.16 1.25C25 63.07 16.33 66.6 20 81.31c1.92 6.87 24.1 8.28 29.93 8.28h2.24c5.84 0 28-1.4 29.93-8.28C85.77 66.6 77.14 63.07 69.52 60zm-18.83 8h.63l3 11.91a.5.5 0 0 1-.22.51l-2.45 1.91a1 1 0 0 1-1.17 0l-2.51-2a.49.49 0 0 1-.21-.5zm.31-5.45h.77a6.15 6.15 0 0 0 1.46-.22l-1.13 2.13a1.59 1.59 0 0 1-1.07 1 1.62 1.62 0 0 1-1.08-1l-1.06-2.07a6 6 0 0 0 1.17.18H51zm28.69 18.11C79.28 82 76 84.11 68.15 85.57a99.14 99.14 0 0 1-16 1.52h-2.22a99.14 99.14 0 0 1-16-1.52c-7.84-1.46-11.1-3.57-11.51-4.91C19.3 68.1 25.89 65.4 33.53 62.27c1.1-.45 3.1-1.22 3.12-1.23a11.87 11.87 0 0 0 3.67-2.41l.75-.69 1.18.81c1.06.74 2.06 1.41 3 2l2.48 4.84a5.52 5.52 0 0 0 .71 1.07l-3.09 12.48a3 3 0 0 0 1.06 3l2.51 2a3.47 3.47 0 0 0 4.28 0l2.45-1.91a3 3 0 0 0 1.11-3.09l-3.15-12.48a5.46 5.46 0 0 0 .7-1l2.6-5c.9-.55 1.85-1.18 2.85-1.87l1.17-.8.73.64A11.89 11.89 0 0 0 65.31 61s2.14.83 3.28 1.29c7.63 3.11 14.22 5.8 11.1 18.37z"></path></g><!----></svg>